<svg width="202" height="48" viewBox="0 0 202 48" fill="none" xmlns="http://www.w3.org/2000/svg">
<path d="M6.184 26.104C6.184 24.3333 6.54667 22.7653 7.272 21.4C8.01867 20.0347 9.02133 18.9787 10.28 18.232C11.56 17.464 12.968 17.08 14.504 17.08C15.8907 17.08 17.096 17.3573 18.12 17.912C19.1653 18.4453 19.9973 19.1173 20.616 19.928V17.368H24.296V35H20.616V32.376C19.9973 33.208 19.1547 33.9013 18.088 34.456C17.0213 35.0107 15.8053 35.288 14.44 35.288C12.9253 35.288 11.5387 34.904 10.28 34.136C9.02133 33.3467 8.01867 32.2587 7.272 30.872C6.54667 29.464 6.184 27.8747 6.184 26.104ZM20.616 26.168C20.616 24.952 20.36 23.896 19.848 23C19.3573 22.104 18.7067 21.4213 17.896 20.952C17.0853 20.4827 16.2107 20.248 15.272 20.248C14.3333 20.248 13.4587 20.4827 12.648 20.952C11.8373 21.4 11.176 22.072 10.664 22.968C10.1733 23.8427 9.928 24.888 9.928 26.104C9.928 27.32 10.1733 28.3867 10.664 29.304C11.176 30.2213 11.8373 30.9253 12.648 31.416C13.48 31.8853 14.3547 32.12 15.272 32.12C16.2107 32.12 17.0853 31.8853 17.896 31.416C18.7067 30.9467 19.3573 30.264 19.848 29.368C20.36 28.4507 20.616 27.384 20.616 26.168ZM29.1515 26.104C29.1515 24.3333 29.5142 22.7653 30.2395 21.4C30.9862 20.0347 31.9888 18.9787 33.2475 18.232C34.5275 17.464 35.9462 17.08 37.5035 17.08C38.6555 17.08 39.7862 17.336 40.8955 17.848C42.0262 18.3387 42.9222 19 43.5835 19.832V11.32H47.2635V35H43.5835V32.344C42.9862 33.1973 42.1542 33.9013 41.0875 34.456C40.0422 35.0107 38.8368 35.288 37.4715 35.288C35.9355 35.288 34.5275 34.904 33.2475 34.136C31.9888 33.3467 30.9862 32.2587 30.2395 30.872C29.5142 29.464 29.1515 27.8747 29.1515 26.104ZM43.5835 26.168C43.5835 24.952 43.3275 23.896 42.8155 23C42.3248 22.104 41.6742 21.4213 40.8635 20.952C40.0528 20.4827 39.1782 20.248 38.2395 20.248C37.3008 20.248 36.4262 20.4827 35.6155 20.952C34.8048 21.4 34.1435 22.072 33.6315 22.968C33.1408 23.8427 32.8955 24.888 32.8955 26.104C32.8955 27.32 33.1408 28.3867 33.6315 29.304C34.1435 30.2213 34.8048 30.9253 35.6155 31.416C36.4475 31.8853 37.3222 32.12 38.2395 32.12C39.1782 32.12 40.0528 31.8853 40.8635 31.416C41.6742 30.9467 42.3248 30.264 42.8155 29.368C43.3275 28.4507 43.5835 27.384 43.5835 26.168ZM52.119 26.104C52.119 24.3333 52.4817 22.7653 53.207 21.4C53.9537 20.0347 54.9563 18.9787 56.215 18.232C57.495 17.464 58.903 17.08 60.439 17.08C61.8257 17.08 63.031 17.3573 64.055 17.912C65.1003 18.4453 65.9323 19.1173 66.551 19.928V17.368H70.231V35H66.551V32.376C65.9323 33.208 65.0897 33.9013 64.023 34.456C62.9563 35.0107 61.7403 35.288 60.375 35.288C58.8603 35.288 57.4737 34.904 56.215 34.136C54.9563 33.3467 53.9537 32.2587 53.207 30.872C52.4817 29.464 52.119 27.8747 52.119 26.104ZM66.551 26.168C66.551 24.952 66.295 23.896 65.783 23C65.2923 22.104 64.6417 21.4213 63.831 20.952C63.0203 20.4827 62.1457 20.248 61.207 20.248C60.2683 20.248 59.3937 20.4827 58.583 20.952C57.7723 21.4 57.111 22.072 56.599 22.968C56.1083 23.8427 55.863 24.888 55.863 26.104C55.863 27.32 56.1083 28.3867 56.599 29.304C57.111 30.2213 57.7723 30.9253 58.583 31.416C59.415 31.8853 60.2897 32.12 61.207 32.12C62.1457 32.12 63.0203 31.8853 63.831 31.416C64.6417 30.9467 65.2923 30.264 65.783 29.368C66.295 28.4507 66.551 27.384 66.551 26.168ZM79.5345 32.024H87.5345V35H75.3105V32.024L83.3425 20.344H75.3105V17.368H87.5345V20.344L79.5345 32.024ZM100.293 35.288C98.629 35.288 97.125 34.9147 95.781 34.168C94.437 33.4 93.381 32.3333 92.613 30.968C91.845 29.5813 91.461 27.9813 91.461 26.168C91.461 24.376 91.8557 22.7867 92.645 21.4C93.4343 20.0133 94.5117 18.9467 95.877 18.2C97.2423 17.4533 98.7677 17.08 100.453 17.08C102.138 17.08 103.664 17.4533 105.029 18.2C106.394 18.9467 107.472 20.0133 108.261 21.4C109.05 22.7867 109.445 24.376 109.445 26.168C109.445 27.96 109.04 29.5493 108.229 30.936C107.418 32.3227 106.309 33.4 104.901 34.168C103.514 34.9147 101.978 35.288 100.293 35.288ZM100.293 32.12C101.232 32.12 102.106 31.896 102.917 31.448C103.749 31 104.421 30.328 104.933 29.432C105.445 28.536 105.701 27.448 105.701 26.168C105.701 24.888 105.456 23.8107 104.965 22.936C104.474 22.04 103.824 21.368 103.013 20.92C102.202 20.472 101.328 20.248 100.389 20.248C99.4503 20.248 98.5757 20.472 97.765 20.92C96.9757 21.368 96.3463 22.04 95.877 22.936C95.4077 23.8107 95.173 24.888 95.173 26.168C95.173 28.0667 95.653 29.5387 96.613 30.584C97.5943 31.608 98.821 32.12 100.293 32.12ZM117.979 11.32V35H114.331V11.32H117.979ZM133.169 17.08C134.513 17.08 135.707 17.368 136.753 17.944C137.819 18.52 138.651 19.3733 139.249 20.504C139.867 21.6347 140.177 23 140.177 24.6V35H136.561V25.144C136.561 23.5653 136.166 22.36 135.377 21.528C134.587 20.6747 133.51 20.248 132.145 20.248C130.779 20.248 129.691 20.6747 128.881 21.528C128.091 22.36 127.697 23.5653 127.697 25.144V35H124.049V11.32H127.697V19.416C128.315 18.6693 129.094 18.0933 130.033 17.688C130.993 17.2827 132.038 17.08 133.169 17.08ZM162.078 17.368V35H158.43V32.92C157.854 33.6453 157.097 34.2213 156.158 34.648C155.241 35.0533 154.259 35.256 153.214 35.256C151.827 35.256 150.579 34.968 149.47 34.392C148.382 33.816 147.518 32.9627 146.878 31.832C146.259 30.7013 145.95 29.336 145.95 27.736V17.368H149.566V27.192C149.566 28.7707 149.961 29.9867 150.75 30.84C151.539 31.672 152.617 32.088 153.982 32.088C155.347 32.088 156.425 31.672 157.214 30.84C158.025 29.9867 158.43 28.7707 158.43 27.192V17.368H162.078ZM171.819 19.992C172.438 19.1387 173.281 18.4453 174.347 17.912C175.435 17.3573 176.641 17.08 177.963 17.08C179.521 17.08 180.929 17.4533 182.187 18.2C183.446 18.9467 184.438 20.0133 185.163 21.4C185.889 22.7653 186.251 24.3333 186.251 26.104C186.251 27.8747 185.889 29.464 185.163 30.872C184.438 32.2587 183.435 33.3467 182.155 34.136C180.897 34.904 179.499 35.288 177.963 35.288C176.598 35.288 175.382 35.0213 174.315 34.488C173.27 33.9547 172.438 33.272 171.819 32.44V35H168.171V11.32H171.819V19.992ZM182.539 26.104C182.539 24.888 182.283 23.8427 181.771 22.968C181.281 22.072 180.619 21.4 179.787 20.952C178.977 20.4827 178.102 20.248 177.163 20.248C176.246 20.248 175.371 20.4827 174.539 20.952C173.729 21.4213 173.067 22.104 172.555 23C172.065 23.896 171.819 24.952 171.819 26.168C171.819 27.384 172.065 28.4507 172.555 29.368C173.067 30.264 173.729 30.9467 174.539 31.416C175.371 31.8853 176.246 32.12 177.163 32.12C178.102 32.12 178.977 31.8853 179.787 31.416C180.619 30.9253 181.281 30.2213 181.771 29.304C182.283 28.3867 182.539 27.32 182.539 26.104ZM192.611 35.224C191.949 35.224 191.395 35 190.947 34.552C190.499 34.104 190.275 33.5493 190.275 32.888C190.275 32.2267 190.499 31.672 190.947 31.224C191.395 30.776 191.949 30.552 192.611 30.552C193.251 30.552 193.795 30.776 194.243 31.224C194.691 31.672 194.915 32.2267 194.915 32.888C194.915 33.5493 194.691 34.104 194.243 34.552C193.795 35 193.251 35.224 192.611 35.224Z" fill="white"/>
</svg>
