<svg width="360" height="414" viewBox="0 0 360 414" fill="none" xmlns="http://www.w3.org/2000/svg">
<g opacity="0.5">
<path opacity="0.5" d="M138.452 240.682C138.776 239.474 139.719 238.531 140.927 238.207L162.551 232.413C163.758 232.089 165.047 232.435 165.931 233.319L181.761 249.148C182.645 250.033 182.99 251.321 182.667 252.529L176.873 274.153C176.549 275.36 175.606 276.304 174.398 276.627L152.774 282.421C151.566 282.745 150.278 282.4 149.394 281.516L133.564 265.686C132.68 264.802 132.335 263.513 132.658 262.305L138.452 240.682Z" stroke="#67777E"/>
<path opacity="0.5" d="M124.703 191.797C125.027 190.59 125.97 189.646 127.178 189.322L148.802 183.528C150.01 183.205 151.298 183.55 152.183 184.434L168.012 200.264C168.896 201.148 169.242 202.437 168.918 203.645L163.124 225.268C162.8 226.476 161.857 227.419 160.649 227.743L139.026 233.537C137.818 233.861 136.529 233.515 135.645 232.631L119.815 216.802C118.931 215.917 118.586 214.629 118.909 213.421L124.703 191.797Z" stroke="#67777E"/>
<path opacity="0.5" d="M75.055 177.285C75.3786 176.077 76.322 175.134 77.5298 174.81L99.1534 169.016C100.361 168.692 101.65 169.038 102.534 169.922L118.364 185.751C119.248 186.635 119.593 187.924 119.269 189.132L113.475 210.756C113.152 211.963 112.208 212.907 111.001 213.23L89.3771 219.024C88.1693 219.348 86.8805 219.003 85.9963 218.119L70.1668 202.289C69.2826 201.405 68.9373 200.116 69.261 198.908L75.055 177.285Z" stroke="#67777E"/>
<path opacity="0.5" d="M39.73 212.61C40.0536 211.402 40.9971 210.459 42.2049 210.135L63.8284 204.341C65.0362 204.017 66.325 204.363 67.2091 205.247L83.0387 221.076C83.9228 221.961 84.2682 223.249 83.9445 224.457L78.1505 246.081C77.8269 247.288 76.8835 248.232 75.6756 248.556L54.0521 254.35C52.8443 254.673 51.5556 254.328 50.6714 253.444L34.8419 237.614C33.9577 236.73 33.6124 235.441 33.936 234.233L39.73 212.61Z" stroke="#67777E"/>
<path opacity="0.5" d="M52.6204 263.684C52.944 262.476 53.8874 261.533 55.0953 261.209L76.7188 255.415C77.9266 255.092 79.2153 255.437 80.0995 256.321L95.929 272.151C96.8132 273.035 97.1585 274.323 96.8349 275.531L91.0409 297.155C90.7173 298.363 89.7738 299.306 88.566 299.63L66.9425 305.424C65.7347 305.747 64.446 305.402 63.5618 304.518L47.7323 288.688C46.8481 287.804 46.5028 286.515 46.8264 285.308L52.6204 263.684Z" stroke="#67777E"/>
<path opacity="0.5" d="M61.0166 128.008C61.3403 126.801 62.2837 125.857 63.4915 125.534L85.115 119.74C86.3228 119.416 87.6116 119.761 88.4958 120.645L104.325 136.475C105.209 137.359 105.555 138.648 105.231 139.856L99.4371 161.479C99.1135 162.687 98.1701 163.63 96.9623 163.954L75.3387 169.748C74.1309 170.072 72.8422 169.726 71.958 168.842L56.1285 153.013C55.2443 152.129 54.899 150.84 55.2226 149.632L61.0166 128.008Z" stroke="#67777E"/>
<path opacity="0.5" d="M188.482 254.812C188.806 253.605 189.75 252.661 190.957 252.338L212.581 246.544C213.789 246.22 215.077 246.565 215.962 247.449L231.791 263.279C232.675 264.163 233.021 265.452 232.697 266.66L226.903 288.283C226.579 289.491 225.636 290.434 224.428 290.758L202.805 296.552C201.597 296.876 200.308 296.53 199.424 295.646L183.594 279.817C182.71 278.933 182.365 277.644 182.688 276.436L188.482 254.812Z" stroke="#67777E"/>
<path opacity="0.5" d="M173.97 205.164C174.293 203.956 175.237 203.013 176.445 202.689L198.068 196.895C199.276 196.572 200.565 196.917 201.449 197.801L217.278 213.631C218.163 214.515 218.508 215.804 218.184 217.011L212.39 238.635C212.067 239.843 211.123 240.786 209.915 241.11L188.292 246.904C187.084 247.227 185.795 246.882 184.911 245.998L169.082 230.168C168.197 229.284 167.852 227.996 168.176 226.788L173.97 205.164Z" stroke="#67777E"/>
<path opacity="0.5" d="M160.221 156.28C160.545 155.072 161.488 154.128 162.696 153.805L184.319 148.011C185.527 147.687 186.816 148.033 187.7 148.917L203.53 164.746C204.414 165.63 204.759 166.919 204.435 168.127L198.641 189.75C198.318 190.958 197.374 191.902 196.167 192.225L174.543 198.019C173.335 198.343 172.047 197.998 171.162 197.113L155.333 181.284C154.449 180.4 154.103 179.111 154.427 177.903L160.221 156.28Z" stroke="#67777E"/>
<path opacity="0.5" d="M110.573 141.767C110.896 140.559 111.84 139.616 113.048 139.292L134.671 133.498C135.879 133.175 137.168 133.52 138.052 134.404L153.881 150.234C154.766 151.118 155.111 152.407 154.787 153.614L148.993 175.238C148.67 176.446 147.726 177.389 146.518 177.713L124.895 183.507C123.687 183.83 122.398 183.485 121.514 182.601L105.685 166.771C104.8 165.887 104.455 164.598 104.779 163.391L110.573 141.767Z" stroke="#67777E"/>
<path opacity="0.5" d="M272.885 233.044C273.208 231.836 274.152 230.892 275.359 230.569L296.983 224.775C298.191 224.451 299.479 224.796 300.364 225.681L316.193 241.51C317.077 242.394 317.423 243.683 317.099 244.891L311.305 266.514C310.981 267.722 310.038 268.666 308.83 268.989L287.207 274.783C285.999 275.107 284.71 274.762 283.826 273.877L267.996 258.048C267.112 257.164 266.767 255.875 267.091 254.667L272.885 233.044Z" stroke="#67777E"/>
<path d="M209.97 169.776C210.248 168.741 211.056 167.932 212.092 167.655L233.715 161.861C234.75 161.583 235.855 161.879 236.613 162.637L252.442 178.467C253.2 179.224 253.496 180.329 253.219 181.364L247.425 202.988C247.147 204.023 246.339 204.832 245.304 205.109L223.68 210.903C222.645 211.181 221.54 210.885 220.782 210.127L204.953 194.297C204.195 193.539 203.899 192.435 204.176 191.399L209.97 169.776Z" stroke="#5FECB2" stroke-width="2"/>
<path opacity="0.5" d="M195.739 120.762C196.062 119.554 197.006 118.611 198.213 118.287L219.837 112.493C221.045 112.17 222.333 112.515 223.218 113.399L239.047 129.229C239.931 130.113 240.277 131.402 239.953 132.609L234.159 154.233C233.835 155.441 232.892 156.384 231.684 156.708L210.061 162.502C208.853 162.825 207.564 162.48 206.68 161.596L190.85 145.766C189.966 144.882 189.621 143.593 189.945 142.386L195.739 120.762Z" stroke="#67777E"/>
<path opacity="0.5" d="M146.09 106.25C146.414 105.042 147.357 104.098 148.565 103.775L170.189 97.9807C171.397 97.657 172.685 98.0023 173.569 98.8865L189.399 114.716C190.283 115.6 190.629 116.889 190.305 118.097L184.511 139.72C184.187 140.928 183.244 141.872 182.036 142.195L160.412 147.989C159.205 148.313 157.916 147.967 157.032 147.083L141.202 131.254C140.318 130.37 139.973 129.081 140.296 127.873L146.09 106.25Z" stroke="#67777E"/>
<path opacity="0.5" d="M132.052 56.9733C132.376 55.7654 133.319 54.822 134.527 54.4984L156.15 48.7044C157.358 48.3807 158.647 48.7261 159.531 49.6102L175.361 65.4398C176.245 66.3239 176.59 67.6127 176.267 68.8205L170.473 90.444C170.149 91.6518 169.205 92.5953 167.998 92.9189L146.374 98.7129C145.166 99.0365 143.878 98.6912 142.993 97.807L127.164 81.9775C126.28 81.0933 125.934 79.8046 126.258 78.5968L132.052 56.9733Z" stroke="#67777E"/>
<path opacity="0.5" d="M259.518 183.777C259.841 182.569 260.785 181.626 261.993 181.302L283.616 175.508C284.824 175.185 286.113 175.53 286.997 176.414L302.826 192.244C303.711 193.128 304.056 194.417 303.732 195.624L297.938 217.248C297.615 218.456 296.671 219.399 295.463 219.723L273.84 225.517C272.632 225.841 271.343 225.495 270.459 224.611L254.63 208.781C253.746 207.897 253.4 206.609 253.724 205.401L259.518 183.777Z" stroke="#67777E"/>
<path opacity="0.5" d="M308.402 197.526C308.726 196.318 309.669 195.375 310.877 195.051L332.501 189.257C333.708 188.933 334.997 189.279 335.881 190.163L351.711 205.992C352.595 206.877 352.94 208.165 352.617 209.373L346.823 230.997C346.499 232.205 345.556 233.148 344.348 233.472L322.724 239.266C321.516 239.589 320.228 239.244 319.344 238.36L303.514 222.53C302.63 221.646 302.284 220.357 302.608 219.15L308.402 197.526Z" stroke="#67777E"/>
<path opacity="0.5" d="M245.005 134.129C245.329 132.921 246.272 131.978 247.48 131.654L269.104 125.86C270.311 125.536 271.6 125.882 272.484 126.766L288.314 142.595C289.198 143.48 289.543 144.768 289.22 145.976L283.426 167.6C283.102 168.808 282.159 169.751 280.951 170.075L259.327 175.869C258.119 176.192 256.831 175.847 255.947 174.963L240.117 159.133C239.233 158.249 238.888 156.96 239.211 155.752L245.005 134.129Z" stroke="#67777E"/>
<path opacity="0.5" d="M231.256 85.2445C231.58 84.0366 232.523 83.0932 233.731 82.7696L255.355 76.9756C256.562 76.6519 257.851 76.9973 258.735 77.8814L274.565 93.711C275.449 94.5952 275.794 95.8839 275.471 97.0917L269.677 118.715C269.353 119.923 268.41 120.866 267.202 121.19L245.578 126.984C244.37 127.308 243.082 126.962 242.198 126.078L226.368 110.249C225.484 109.365 225.138 108.076 225.462 106.868L231.256 85.2445Z" stroke="#67777E"/>
<path opacity="0.5" d="M181.608 70.7319C181.932 69.5241 182.875 68.5807 184.083 68.2571L205.706 62.4631C206.914 62.1394 208.203 62.4847 209.087 63.3689L224.917 79.1984C225.801 80.0826 226.146 81.3714 225.822 82.5792L220.028 104.203C219.705 105.411 218.761 106.354 217.554 106.678L195.93 112.472C194.722 112.795 193.434 112.45 192.549 111.566L176.72 95.7362C175.836 94.852 175.49 93.5633 175.814 92.3555L181.608 70.7319Z" stroke="#67777E"/>
<path opacity="0.5" d="M167.57 21.4557C167.893 20.2478 168.837 19.3044 170.044 18.9808L191.668 13.1868C192.876 12.8631 194.165 13.2085 195.049 14.0926L210.878 29.9222C211.762 30.8063 212.108 32.0951 211.784 33.3029L205.99 54.9264C205.666 56.1342 204.723 57.0777 203.515 57.4013L181.892 63.1953C180.684 63.5189 179.395 63.1736 178.511 62.2894L162.681 46.4599C161.797 45.5757 161.452 44.287 161.776 43.0792L167.57 21.4557Z" stroke="#67777E"/>
</g>
</svg>
