<svg width="25" height="25" viewBox="0 0 25 25" fill="none" xmlns="http://www.w3.org/2000/svg">
<path d="M11.1088 13.5667L5.2831 15.5191C5.2831 15.5191 4.82481 14.9522 4.44198 14.6621C4.03407 14.3531 3.26441 14.0194 3.26441 14.0194C3.26441 12.8053 3.60048 11.7082 4.44198 10.4487C5.13351 9.41355 6.12636 8.57029 6.82045 8.12997C7.30335 8.83609 7.81534 9.25542 8.39029 9.62295C8.62205 9.7711 8.86483 9.9113 9.1186 10.0579C9.19867 10.1041 9.27984 10.151 9.36209 10.1989C9.70601 10.3994 10.0721 10.6205 10.467 10.8981C10.9136 11.2122 11.2648 11.4752 11.5899 11.7407C11.5836 12.0162 11.5541 12.6017 11.4196 12.8808C11.2254 13.2836 11.1088 13.5667 11.1088 13.5667Z" fill="#9A9AA0"/>
<path d="M12.8134 12.6287C12.0561 11.9037 11.5321 11.4616 10.5743 10.7881C10.1738 10.5065 9.80297 10.2827 9.45731 10.0812C9.37363 10.0324 9.29159 9.98501 9.21106 9.9385C8.95814 9.79244 8.71969 9.65473 8.49147 9.50884C7.92784 9.14855 7.42959 8.74015 6.9573 8.04561C7.59149 7.66324 8.09579 7.46241 8.54786 7.28239C9.14529 7.04448 9.65151 6.84289 10.2457 6.30661C11.1838 5.46001 12.0121 3.73569 12.0121 3.73569C12.0121 3.73569 18.2312 7.64844 20.1156 10.4952L13.1055 12.8767L12.8134 12.6287Z" fill="#9A9AA0"/>
<path d="M15.3766 21.4465C14.6076 21.6722 14.6195 21.5179 14.6195 21.5179C14.6195 21.5179 14.6868 20.7745 14.7037 19.9468C14.7125 19.5139 14.7007 19.2031 14.3672 18.8756C14.0059 18.5207 13.5967 18.4139 13.0456 18.4471C12.4643 18.4821 12.2936 18.6333 12.0121 18.947C11.813 19.1688 11.7071 19.6125 11.7071 19.6125C11.7071 19.6125 11.5496 20.231 11.3392 20.5895C11.0372 21.1041 10.5482 21.791 10.2457 21.7321C9.25783 21.5399 8.23109 21.1671 7.13356 20.5181C6.33216 20.0442 5.2831 19.0898 5.2831 19.0898C5.2831 19.0898 5.69669 18.3278 5.78777 17.8043C5.88869 17.2243 5.70366 16.3046 5.70366 16.3046L10.7476 14.5298C10.7476 14.5298 10.5995 15.1879 10.7804 15.5598C11.144 16.3074 12.145 16.5917 13.0456 16.3282C14.023 16.0422 14.5328 15.5181 14.199 14.305C14.0693 13.8339 13.7191 13.5195 13.7191 13.5195L20.5328 11.2109C21.0036 12.1379 21.2644 13.1599 21.2644 14.2336C21.2644 16.2752 20.113 18.5622 18.3205 19.9468C17.552 20.5404 16.3192 21.1698 15.3766 21.4465Z" fill="#9A9AA0"/>
<path d="M11.1088 13.5667L5.2831 15.5191C5.2831 15.5191 4.82481 14.9522 4.44198 14.6621C4.03407 14.3531 3.26441 14.0194 3.26441 14.0194C3.26441 12.8053 3.60048 11.7082 4.44198 10.4487C5.13351 9.41355 6.12636 8.57029 6.82045 8.12997C7.30335 8.83609 7.81534 9.25542 8.39029 9.62295C8.62205 9.7711 8.86483 9.9113 9.1186 10.0579C9.19867 10.1041 9.27984 10.151 9.36209 10.1989C9.70601 10.3994 10.0721 10.6205 10.467 10.8981C10.9136 11.2122 11.2648 11.4752 11.5899 11.7407C11.5836 12.0162 11.5541 12.6017 11.4196 12.8808C11.2254 13.2836 11.1088 13.5667 11.1088 13.5667Z" fill="#9A9AA0"/>
<path d="M12.8134 12.6287C12.0561 11.9037 11.5321 11.4616 10.5743 10.7881C10.1738 10.5065 9.80297 10.2827 9.45731 10.0812C9.37363 10.0324 9.29159 9.98501 9.21106 9.9385C8.95814 9.79244 8.71969 9.65473 8.49147 9.50884C7.92784 9.14855 7.42959 8.74015 6.9573 8.04561C7.59149 7.66324 8.09579 7.46241 8.54786 7.28239C9.14529 7.04448 9.65151 6.84289 10.2457 6.30661C11.1838 5.46001 12.0121 3.73569 12.0121 3.73569C12.0121 3.73569 18.2312 7.64844 20.1156 10.4952L13.1055 12.8767L12.8134 12.6287Z" fill="#9A9AA0"/>
<path d="M15.3766 21.4465C14.6076 21.6722 14.6195 21.5179 14.6195 21.5179C14.6195 21.5179 14.6868 20.7745 14.7037 19.9468C14.7125 19.5139 14.7007 19.2031 14.3672 18.8756C14.0059 18.5207 13.5967 18.4139 13.0456 18.4471C12.4643 18.4821 12.2936 18.6333 12.0121 18.947C11.813 19.1688 11.7071 19.6125 11.7071 19.6125C11.7071 19.6125 11.5496 20.231 11.3392 20.5895C11.0372 21.1041 10.5482 21.791 10.2457 21.7321C9.25783 21.5399 8.23109 21.1671 7.13356 20.5181C6.33216 20.0442 5.2831 19.0898 5.2831 19.0898C5.2831 19.0898 5.69669 18.3278 5.78777 17.8043C5.88869 17.2243 5.70366 16.3046 5.70366 16.3046L10.7476 14.5298C10.7476 14.5298 10.5995 15.1879 10.7804 15.5598C11.144 16.3074 12.145 16.5917 13.0456 16.3282C14.023 16.0422 14.5328 15.5181 14.199 14.305C14.0693 13.8339 13.7191 13.5195 13.7191 13.5195L20.5328 11.2109C21.0036 12.1379 21.2644 13.1599 21.2644 14.2336C21.2644 16.2752 20.113 18.5622 18.3205 19.9468C17.552 20.5404 16.3192 21.1698 15.3766 21.4465Z" fill="#9A9AA0"/>
<path d="M3.68496 16.7331C3.98386 17.4508 4.77842 18.4471 4.77842 18.4471C4.77842 18.4471 5.15498 17.2957 4.94665 16.5903C4.68458 15.7029 3.2644 14.7335 3.2644 14.7335C3.2644 14.7335 3.37349 15.9853 3.68496 16.7331Z" fill="#9A9AA0"/>
</svg>
